<svg width="46" height="72" viewBox="0 0 46 72" fill="none" xmlns="http://www.w3.org/2000/svg">
<path opacity="0.2" d="M10.5632 44.9984C9.43828 44.9984 8.33204 44.9142 7.25072 44.7491C8.30399 43.7519 9.48191 42.817 10.7751 41.9788C15.5055 38.9125 20.7874 37.7751 25.1656 38.4669C25.4305 38.5074 25.6549 38.6476 25.8107 38.8408C25.8013 38.8626 25.7889 38.8844 25.7764 38.9062C25.7764 38.9062 25.7764 38.9062 25.7733 38.9094C21.8157 42.683 16.4621 44.9984 10.5632 44.9984Z" fill="#8103D5"/>
<path opacity="0.6" d="M3.07791 50.1733C4.09066 48.26 5.49606 46.4121 7.25047 44.748C8.33178 44.9132 9.43803 44.9973 10.563 44.9973C16.4619 44.9973 21.8155 42.682 25.773 38.9083C22.0367 45.767 14.7636 50.4226 6.40287 50.4226C5.27169 50.4226 4.16234 50.3384 3.07791 50.1733Z" fill="#8103D5"/>
<path d="M3.07786 50.1728C4.16229 50.3379 5.27165 50.4221 6.40282 50.4221C14.7635 50.4221 22.0367 45.7665 25.773 38.9078C25.7761 38.9047 25.7761 38.9047 25.7761 38.9047C25.7948 38.8891 25.8104 38.8735 25.826 38.8579C25.9974 39.0792 26.0784 39.369 26.0316 39.6681C26.0316 39.6681 26.1127 39.8239 25.6141 41.1888C24.4112 44.4702 21.965 48.624 16.7579 51.9989C11.934 55.1244 8.54987 55.6167 4.05322 55.6915C3.53594 55.7009 3.01554 55.6541 2.5076 55.5482C1.84074 55.4142 1.42317 54.7536 1.57898 54.0929C1.89059 52.781 2.39231 51.4629 3.07786 50.1728Z" fill="#8103D5"/>
<path d="M39.4282 71.8993C43.0425 71.8993 45.9996 69.1582 45.9996 65.5738V26.0398C45.9996 22.5608 43.0425 19.7144 39.4282 19.7144C35.8139 19.7144 32.8567 22.6663 32.8567 26.0398V65.5738C32.8567 69.1582 35.7044 71.8993 39.4282 71.8993Z" fill="#8103D5"/>
<path d="M3.05176e-05 26.0925C3.05176e-05 22.5845 2.41619 19.7143 5.57579 19.7143H40.4243C43.4909 19.7143 46 22.5845 46 26.0925C46 29.6005 43.398 32.4706 40.4243 32.4706H5.57579C2.41619 32.4706 3.05176e-05 29.7068 3.05176e-05 26.0925Z" fill="#8103D5"/>
<path d="M46 6.81481C46 10.5229 42.9671 13.5294 39.4286 13.5294C35.789 13.5294 32.8572 10.5229 32.8572 6.81481C32.8572 3.10675 35.789 -7.62939e-06 39.4286 -7.62939e-06C42.9671 -7.62939e-06 46 3.10675 46 6.81481Z" fill="#8103D5"/>
</svg>
